<?xml version="1.0" standalone="no"?>
<svg width="567.429" height="149.493" viewBox="0 0 567.429 149.493" xmlns="http://www.w3.org/2000/svg" shape-rendering="crispEdges">
<title>
./Histos/partons.svg
</title>
<desc>
Creator: ROOT Version 6.22/06
CreationDate: Mon May 20 13:54:15 2024</desc>
<defs>
</defs>
<rect x="0.5" y="0" width="566.929" height="148.993" fill="white"/>
<rect x="6.16929" y="1.48993" width="177.638" height="146.013" fill="white"/>
<rect x="23.9331" y="16.0912" width="142.11" height="116.81" fill="white"/>
<rect x="23.9331" y="16.0912" width="142.11" height="116.81" fill="none" stroke="black"/>
<rect x="23.9331" y="16.0912" width="142.11" height="116.81" fill="white"/>
<rect x="23.9331" y="16.0912" width="142.11" height="116.81" fill="none" stroke="black"/>
<path d="M23.9331,132.901h 6.82129v -1.25023h 0.28422v -1.84125h 0.28422v -2.65958h 0.28422v -2.52319h 0.28422v -0.0909258h 0.28422v -4.56902h 0.28422v -0.954721h 0.28422v -3.1824h 0.28422v -2.20495h 0.28422v -2.20495h 0.28422v -2.52319h 0.28422v
 -3.13694h 0.28422v -0.795601h 0.28422v 0.181852h 0.28422v -4.13712h 0.28422v -2.40953h 0.28422v -1.52301h 0.28422v -2.11403h 0.28422v -2.3868h 0.28422v -1.86398h 0.28422v -3.02328h 0.28422v -0.772869h 0.28422v -2.04583h 0.28422v -3.50064h 0.28422v
 -0.363703h 0.28422v -1.81852h 0.28422v -3.09148h 0.28422v -1.77305h 0.28422v -1.45481h 0.28422v -5.02365h 0.28422v 0.613749h 0.28422v -0.250046h 0.28422v -5.93291h 0.28422v -0.727407h 0.28422v -1.2275h 0.28422v -1.11384h 0.28422v -0.863795h 0.28422v
 -1.81852h 0.28422v 1.13657h 0.28422v 3.47791h 0.28422v 0.477361h 0.28422v -1.25023h 0.28422v -2.63685h 0.28422v -3.978h 0.28422v -3.06875h 0.28422v -1.52301h 0.28422v -1.09111h 0.28422v 0.386435h 0.28422v -1.11384h 0.28422v -2.0231h 0.28422v
 -4.72814h 0.28422v 0.272777h 0.28422v -3.84162h 0.28422v 0.772869h 0.28422v -1.68213h 0.28422v -1.18204h 0.28422v -5.16004h 0.28422v 3.40972h 0.28422v -1.54574h 0.28422v 3.00055h 0.28422v -2.22768h 0.28422v 0.818332h 0.28422v -2.31861h 0.28422v
 -0.636481h 0.28422v -1.29569h 0.28422v -0.363703h 0.28422v -0.250046h 0.28422v 0.363703h 0.28422v 1.54574h 0.28422v -2.75051h 0.28422v 6.88763h 0.28422v -5.04638h 0.28422v 0.113657h 0.28422v 4.38717h 0.28422v -2.52319h 0.28422v 1.95491h 0.28422v
 0.568286h 0.28422v -1.84125h 0.28422v 4.8418h 0.28422v -1.5912h 0.28422v 2.52319h 0.28422v 3.88708h 0.28422v -1.56847h 0.28422v -0.954721h 0.28422v 6.52393h 0.28422v 6.27388h 0.28422v -0.818332h 0.28422v -2.90963h 0.28422v -0.295509h 0.28422v
 2.09129h 0.28422v -4.77361h 0.28422v 1.90944h 0.28422v -2.11403h 0.28422v -0.659212h 0.28422v 2.11403h 0.28422v -4.56902h 0.28422v -0.113657h 0.28422v -4.4781h 0.28422v 6.97856h 0.28422v -1.63666h 0.28422v -3.59157h 0.28422v 1.75032h 0.28422v
 -0.431898h 0.28422v -0.272777h 0.28422v 0.863795h 0.28422v 0.477361h 0.28422v -8.20605h 0.28422v -0.15912h 0.28422v 1.18204h 0.28422v 4.09166h 0.28422v -2.79597h 0.28422v -4.25078h 0.28422v 1.47754h 0.28422v 1.04565h 0.28422v -1.61393h 0.28422v
 -1.88671h 0.28422v 2.11403h 0.28422v 0.522823h 0.28422v -0.772869h 0.28422v -1.47754h 0.28422v -2.63685h 0.28422v 0.31824h 0.28422v 1.75032h 0.28422v -4.59175h 0.28422v 2.61412h 0.28422v -1.2275h 0.28422v -1.43208h 0.28422v 0.863795h 0.28422v
 2.75051h 0.28422v -4.45537h 0.28422v 1.50028h 0.28422v -1.45481h 0.28422v -3.09148h 0.28422v 6.0011h 0.28422v -4.15986h 0.28422v 4.75087h 0.28422v -4.93273h 0.28422v -0.15912h 0.28422v -1.40935h 0.28422v 3.95527h 0.28422v -3.06875h 0.28422v 4.50083h
 0.28422v 0.591018h 0.28422v -3.45518h 0.28422v 1.75032h 0.28422v -3.31879h 0.28422v 0.545555h 0.28422v -0.340972h 0.28422v 2.95509h 0.28422v 0.0227315h 0.28422v 1.06838h 0.28422v -0.613749h 0.28422v 0.568286h 0.28422v -0.727407h 0.28422v -2.59139h
 0.28422v 0.591018h 0.28422v 3.88708h 0.28422v -3.34152h 0.28422v -1.2275h 0.28422v 3.34152h 0.28422v -1.72759h 0.28422v 3.02328h 0.28422v -0.841064h 0.28422v 1.6594h 0.28422v 0.704675h 0.28422v 1.50028h 0.28422v -0.295509h 0.28422v -2.54592h
 0.28422v 5.61467h 0.28422v -1.97764h 0.28422v -2.54592h 0.28422v 3.65976h 0.28422v -1.40935h 0.28422v 1.38662h 0.28422v -1.45481h 0.28422v 4.81907h 0.28422v 0.0454629h 0.28422v -1.56847h 0.28422v 3.54611h 0.28422v -1.95491h 0.28422v 3.11421h
 0.28422v 2.27315h 0.28422v -1.29569h 0.28422v -1.27296h 0.28422v 1.84125h 0.28422v 1.97764h 0.28422v -1.88671h 0.28422v 6.8649h 0.28422v 1.6594h 0.28422v -3.11421h 0.28422v -1.47754h 0.28422v 2.54592h 0.28422v -0.454629h 0.28422v 1.1593h 0.28422v
 1.75032h 0.28422v -0.818332h 0.28422v 4.93273h 0.28422v 2.3868h 0.28422v -4.02347h 0.28422v 2.18222h 0.28422v 1.00018h 0.28422v 3.72796h 0.28422v -3.04601h 0.28422v 0.340972h 0.28422v 0.841064h 0.28422v 2.68231h 0.28422v 0.818332h 0.28422v 2.88689h
 0.28422v -1.09111h 0.28422v 3.95527h 0.28422v 0.0681944h 0.28422v -1.81852h 0.28422v 2.31861h 0.28422v 1.20477h 0.28422v 2.29588h 0.28422v 1.02292h 0.28422v -0.227315h 0.28422v 2.27315h 0.28422v -2.20495h 0.28422v 1.68213h 0.28422v 1.93217h 0.28422v
 1.56847h 0.28422v -0.568286h 0.28422v 1.06838h 0.28422v 3.36426h 0.28422v 0.0227315h 0.28422v 1.79578h 0.28422v -0.113657h 0.28422v 2.70504h 0.28422v -0.772869h 0.28422v 1.70486h 0.28422v -1.95491h 0.28422v 3.04601h 0.28422v 0.863795h 0.28422v
 0.136389h 0.28422v -1.11384h 0.28422v 3.34152h 0.28422v 0.181852h 0.28422v 3.00055h 0.28422v -1.36389h 0.28422v 1.90944h 0.28422v -0.181852h 0.28422v 0.340972h 0.28422v 0.841064h 0.28422v 2.63685h 0.28422v -0.454629h 0.28422v 3.59157h 0.28422v
 -1.97764h 0.28422v 2.31861h 0.28422v -1.50028h 0.28422v 0.954721h 0.28422v 2.56865h 0.28422v 1.04565h 0.28422v 0.181852h 0.28422v 0.500092h 0.28422v 0.636481h 0.28422v 1.56847h 0.28422v 1.2275h 0.28422v -0.227315h 0.28422v 1.02292h 0.28422v 1.86398h
 0.28422v -2.34134h 0.28422v 3.79615h 0.28422v -0.818332h 0.28422v -0.0909258h 0.28422v 1.06838h 0.28422v -0.31824h 0.28422v 1.06838h 0.28422v 0.681944h 0.28422v 0.750138h 0.28422v -1.04565h 0.28422v 2.36407h 0.28422v 0.295509h 0.28422v -0.954721h
 0.28422v 2.25041h 0.28422v 0.0909258h 0.28422v -0.340972h 0.28422v 0.0909258h 0.28422v 1.27296h 0.28422v -0.0454629h 0.28422v 1.88671h 0.28422v -0.954721h 0.28422v 0.181852h 0.28422v 1.1593h 0.28422v 0.31824h 0.28422v 1.04565h 0.28422v 0.15912h
 0.28422v 0.909258h 0.28422v -1.18204h 0.28422v 0.15912h 0.28422v 0.795601h 0.28422v 0.227315h 0.28422v 0.340972h 0.28422v -0.386435h 0.28422v 1.11384h 0.28422v 0.454629h 0.28422v 0.295509h 0.28422v 0.204583h 0.28422v -0.0909258h 0.28422v 0.409166h
 0.28422v 1.20477h 0.28422v -0.818332h 0.28422v 0.0227315h 0.28422v 1.02292h 0.28422v -0.227315h 0.28422v 0.204583h 0.28422v 0.0909258h 0.568441v 0.454629h 0.28422v 0.181852h 0.28422v 0.93199h 0.28422v -0.750138h 0.28422v 0.977453h 0.28422v
 -0.591018h 0.28422v 0.591018h 0.28422v 0.136389h 0.28422v -0.636481h 0.28422v 0.613749h 0.28422v 0.15912h 0.28422v 0.0681944h 0.28422v 0.636481h 0.28422v -0.431898h 0.28422v 0.113657h 0.28422v 0.477361h 0.28422v -0.0454629h 0.28422v -0.181852h
 0.28422v -0.0681944h 0.28422v 0.681944h 0.28422v -0.31824h 0.28422v 0.31824h 0.28422v -0.227315h 0.28422v 0.250046h 0.28422v 0.0227315h 0.28422v 0.295509h 0.28422v 0.250046h 0.28422v -0.272777h 0.28422v -0.15912h 0.28422v 0.136389h 0.28422v
 -0.204583h 0.28422v 0.136389h 0.28422v -0.272777h 0.28422v 0.863795h 0.28422v -0.681944h 0.28422v 0.386435h 0.28422v 0.386435h 0.28422v -0.500092h 0.28422v 0.431898h 0.28422v 0.0454629h 0.568441v 0.0681944h 0.28422v 0.113657h 0.28422v -0.0681944h
 0.28422v 0.0681944h 0.28422v -0.136389h 0.28422v 0.136389h 0.28422v -0.136389h 0.28422v 0.250046h 0.28422v 0.204583h 0.28422v -0.272777h 0.28422v 0.0454629h 0.28422v 0.181852h 0.28422v -0.431898h 0.28422v 0.454629h 0.28422v -0.113657h 0.28422v
 0.0227315h 0.28422v 0.0227315h 0.28422v -0.0909258h 0.28422v 0.0227315h 0.28422v 0.113657h 0.28422v 0.181852h 0.28422v -0.136389h 0.28422v -0.250046h 0.28422v 0.363703h 0.28422v -0.295509h 0.28422v 0.386435h 0.28422v -0.272777h 0.28422v 0.204583h
 0.28422v -0.181852h 0.28422v -0.15912h 0.28422v 0.113657h 0.28422v 0.386435h 0.28422v -0.113657h 0.28422v -0.181852h 0.28422v -0.0909258h 0.28422v 0.363703h 0.28422v -0.113657h 0.568441v -0.0681944h 0.28422v -0.136389h 0.28422v 0.0454629h 0.28422v
 0.204583h 0.28422v -0.0681944h 0.28422v 0.204583h 0.28422v -0.0909258h 0.28422v 0.136389h 0.28422v -0.181852h 0.28422v 0.0454629h 0.28422v 0.0227315h 0.28422v -0.0227315h 0.28422v -0.0681944h 0.28422v -0.136389h 0.28422v 0.113657h 0.28422v
 0.0909258h 0.28422v 0.15912h 0.28422v -0.0681944h 0.28422v -0.113657h 0.28422v 0.0454629h 0.28422v -0.204583h 0.28422v 0.15912h 0.28422v 0.0454629h 0.28422v -0.0681944h 0.28422v -0.136389h 0.28422v -0.0227315h 0.28422v 0.272777h 0.28422v 0.113657h
 0.28422v -0.272777h 0.28422v -0.0227315h 0.28422v 0.15912h 0.28422v -0.0909258h 0.28422v -0.0454629h 0.28422v 0.0909258h 0.28422v -0.15912h 0.28422v 0.0909258h 0.28422v 0.113657h 0.28422v 0.0454629h 0.28422v 0.0454629h 0.28422v -0.0227315h 0.28422v
 -0.113657h 0.28422v -0.181852h 0.28422v 0.227315h 0.28422v -0.204583h 0.28422v 0.15912h 0.28422v -0.0227315h 0.28422v -0.0227315h 0.28422v -0.136389h 0.28422v 0.250046h 0.28422v -0.0454629h 1.13688v -0.0227315h 0.28422v 0.181852h 0.28422v
 -0.0681944h 0.568441v -0.0227315h 0.28422v 0.0454629h 0.28422v -0.0681944h 0.28422v -0.272777h 0.28422v 0.181852h 0.28422v -0.0454629h 0.28422v 0.0454629h 0.28422v -0.0681944h 0.28422v 0.15912h 0.28422v -0.113657h 0.568441v -0.136389h 0.28422v
 0.181852h 0.28422v 0.15912h 0.568441v -0.15912h 0.28422v 0.181852h 0.28422v -0.136389h 0.28422v -0.15912h 0.28422v 0.272777h 0.28422v -0.545555h 0.28422v 0.272777h 0.28422v -0.0681944h 0.28422v 0.409166h 0.28422v -0.227315h 0.28422v -0.0454629h
 0.28422v -0.0454629h 0.28422v 0.0227315h 0.28422v -0.181852h 0.28422v 0.0681944h 0.28422v 0.272777h 0.568441" fill="none" stroke="#ff0000"/>
<path d="M23.9331,132.901h 142.11" fill="none" stroke="black"/>
<path d="M30.7002,129.397v 3.5043" fill="none" stroke="black"/>
<path d="M37.4674,131.149v 1.75215" fill="none" stroke="black"/>
<path d="M44.2345,131.149v 1.75215" fill="none" stroke="black"/>
<path d="M51.0017,131.149v 1.75215" fill="none" stroke="black"/>
<path d="M57.7688,131.149v 1.75215" fill="none" stroke="black"/>
<path d="M64.536,129.397v 3.5043" fill="none" stroke="black"/>
<path d="M71.3031,131.149v 1.75215" fill="none" stroke="black"/>
<path d="M78.0703,131.149v 1.75215" fill="none" stroke="black"/>
<path d="M84.8375,131.149v 1.75215" fill="none" stroke="black"/>
<path d="M91.6046,131.149v 1.75215" fill="none" stroke="black"/>
<path d="M98.3718,129.397v 3.5043" fill="none" stroke="black"/>
<path d="M105.139,131.149v 1.75215" fill="none" stroke="black"/>
<path d="M111.906,131.149v 1.75215" fill="none" stroke="black"/>
<path d="M118.673,131.149v 1.75215" fill="none" stroke="black"/>
<path d="M125.44,131.149v 1.75215" fill="none" stroke="black"/>
<path d="M132.208,129.397v 3.5043" fill="none" stroke="black"/>
<path d="M138.975,131.149v 1.75215" fill="none" stroke="black"/>
<path d="M145.742,131.149v 1.75215" fill="none" stroke="black"/>
<path d="M152.509,131.149v 1.75215" fill="none" stroke="black"/>
<path d="M159.276,131.149v 1.75215" fill="none" stroke="black"/>
<path d="M166.043,129.397v 3.5043" fill="none" stroke="black"/>
<path d="M30.7002,129.397v 3.5043" fill="none" stroke="black"/>
<text xml:space="preserve" x="29.2253" y="137.629" fill="black" font-size="5.18848" font-family="Helvetica">0</text>
<text xml:space="preserve" x="60.7915" y="137.629" fill="black" font-size="5.18848" font-family="Helvetica">0.5</text>
<text xml:space="preserve" x="97.4083" y="137.629" fill="black" font-size="5.18848" font-family="Helvetica">1</text>
<text xml:space="preserve" x="128.659" y="137.629" fill="black" font-size="5.18848" font-family="Helvetica">1.5</text>
<text xml:space="preserve" x="164.644" y="137.629" fill="black" font-size="5.18848" font-family="Helvetica">2</text>
<text xml:space="preserve" x="140.654" y="142.364" fill="black" font-size="5.18848" font-family="Helvetica">M_ki (GeV) </text>
<path d="M23.9331,132.901v -116.81" fill="none" stroke="black"/>
<path d="M28.1964,132.901h -4.26331" fill="none" stroke="black"/>
<path d="M26.0647,128.355h -2.13165" fill="none" stroke="black"/>
<path d="M26.0647,123.809h -2.13165" fill="none" stroke="black"/>
<path d="M26.0647,119.262h -2.13165" fill="none" stroke="black"/>
<path d="M26.0647,114.716h -2.13165" fill="none" stroke="black"/>
<path d="M28.1964,110.17h -4.26331" fill="none" stroke="black"/>
<path d="M26.0647,105.624h -2.13165" fill="none" stroke="black"/>
<path d="M26.0647,101.077h -2.13165" fill="none" stroke="black"/>
<path d="M26.0647,96.531h -2.13165" fill="none" stroke="black"/>
<path d="M26.0647,91.9847h -2.13165" fill="none" stroke="black"/>
<path d="M28.1964,87.4384h -4.26331" fill="none" stroke="black"/>
<path d="M26.0647,82.8921h -2.13165" fill="none" stroke="black"/>
<path d="M26.0647,78.3458h -2.13165" fill="none" stroke="black"/>
<path d="M26.0647,73.7995h -2.13165" fill="none" stroke="black"/>
<path d="M26.0647,69.2532h -2.13165" fill="none" stroke="black"/>
<path d="M28.1964,64.707h -4.26331" fill="none" stroke="black"/>
<path d="M26.0647,60.1607h -2.13165" fill="none" stroke="black"/>
<path d="M26.0647,55.6144h -2.13165" fill="none" stroke="black"/>
<path d="M26.0647,51.0681h -2.13165" fill="none" stroke="black"/>
<path d="M26.0647,46.5218h -2.13165" fill="none" stroke="black"/>
<path d="M28.1964,41.9755h -4.26331" fill="none" stroke="black"/>
<path d="M26.0647,37.4292h -2.13165" fill="none" stroke="black"/>
<path d="M26.0647,32.8829h -2.13165" fill="none" stroke="black"/>
<path d="M26.0647,28.3366h -2.13165" fill="none" stroke="black"/>
<path d="M26.0647,23.7903h -2.13165" fill="none" stroke="black"/>
<path d="M28.1964,19.244h -4.26331" fill="none" stroke="black"/>
<path d="M28.1964,19.244h -4.26331" fill="none" stroke="black"/>
<text xml:space="preserve" x="20.3867" y="134.788" fill="black" font-size="5.18848" font-family="Helvetica">0</text>
<text xml:space="preserve" x="12.4952" y="112.06" fill="black" font-size="5.18848" font-family="Helvetica">1000</text>
<text xml:space="preserve" x="12.4952" y="89.3324" fill="black" font-size="5.18848" font-family="Helvetica">2000</text>
<text xml:space="preserve" x="12.4952" y="66.289" fill="black" font-size="5.18848" font-family="Helvetica">3000</text>
<text xml:space="preserve" x="12.4952" y="43.5614" fill="black" font-size="5.18848" font-family="Helvetica">4000</text>
<text xml:space="preserve" x="12.4952" y="20.8337" fill="black" font-size="5.18848" font-family="Helvetica">5000</text>
<g transform="rotate(-90,9.02288,30.6192)">
<text xml:space="preserve" x="9.02288" y="30.6192" fill="black" font-size="5.18848" font-family="Helvetica">Counts</text>
</g>
<rect x="144.727" y="10.9807" width="35.5276" height="23.362" fill="white"/>
<path d="M144.727,34.3428h 35.5276" fill="none" stroke="black"/>
<path d="M180.254,34.3428v -23.362" fill="none" stroke="black"/>
<path d="M180.254,10.9807h -35.5276" fill="none" stroke="black"/>
<path d="M144.727,10.9807v 23.362" fill="none" stroke="black"/>
<text xml:space="preserve" x="161.172" y="16.0988" fill="black" font-size="5.4296" font-family="Helvetica">h</text>
<path d="M144.727,16.8213h 35.5276" fill="none" stroke="black"/>
<text xml:space="preserve" x="146.336" y="21.1494" fill="black" font-size="4.21767" font-family="Helvetica">Entries </text>
<text xml:space="preserve" x="164.644" y="21.1494" fill="black" font-size="4.21767" font-family="Helvetica"> 923733</text>
<text xml:space="preserve" x="146.336" y="27.1469" fill="black" font-size="4.21767" font-family="Helvetica">Mean  </text>
<text xml:space="preserve" x="166.223" y="27.1469" fill="black" font-size="4.21767" font-family="Helvetica"> 0.5631</text>
<text xml:space="preserve" x="146.336" y="32.8289" fill="black" font-size="4.21767" font-family="Helvetica">Std Dev   </text>
<text xml:space="preserve" x="165.591" y="32.8289" fill="black" font-size="4.21767" font-family="Helvetica"> 0.2896</text>
<path d="M23.9331,132.901h 6.53707v -16.3894h 0.28422v -76.6505h 0.28422v 3.70523h 0.28422v -1.50028h 0.28422v -0.591018h 0.28422v 3.34152h 0.28422v -2.43227h 0.28422v 1.54574h 0.28422v -2.36407h 0.28422v 1.81852h 0.28422v 0.704675h 0.28422v
 -2.47773h 0.28422v 1.02292h 0.28422v 1.25023h 0.28422v -2.09129h 0.28422v 0.0681944h 0.28422v -0.93199h 0.28422v -1.70486h 0.28422v 1.86398h 0.28422v -0.0681944h 0.28422v -0.0454629h 0.28422v 2.63685h 0.28422v -1.90944h 0.28422v 0.659212h 0.28422v
 -1.47754h 0.28422v 0.431898h 0.28422v 0.613749h 0.28422v 0.522823h 0.28422v -0.977453h 0.28422v -1.45481h 0.28422v 2.54592h 0.28422v -1.54574h 0.28422v 1.09111h 0.28422v -0.841064h 0.28422v 0.454629h 0.28422v 0.909258h 0.28422v -2.59139h 0.28422v
 1.43208h 0.28422v -0.250046h 0.28422v 1.1593h 0.28422v -1.70486h 0.28422v 3.13694h 0.28422v -0.977453h 0.28422v -1.31842h 0.28422v 0.31824h 0.28422v -0.0454629h 0.28422v -0.545555h 0.28422v 0.500092h 0.28422v 1.72759h 0.28422v 0.181852h 0.28422v
 -1.86398h 0.28422v 1.95491h 0.28422v -3.2506h 0.28422v 2.36407h 0.28422v 2.00037h 0.28422v -1.45481h 0.28422v -1.75032h 0.28422v 0.681944h 0.28422v 0.818332h 0.28422v 0.681944h 0.28422v -1.29569h 0.28422v 0.636481h 0.28422v -1.63666h 0.28422v
 1.52301h 0.28422v 0.250046h 0.28422v -0.477361h 0.28422v 1.29569h 0.28422v -1.27296h 0.28422v -0.295509h 0.28422v -3.52338h 0.28422v 2.06856h 0.28422v 4.02347h 0.28422v -0.818332h 0.28422v 2.77324h 0.28422v -3.81888h 0.28422v 3.6825h 0.28422v
 -1.81852h 0.28422v 1.52301h 0.28422v -3.77342h 0.28422v 1.40935h 0.28422v 1.70486h 0.28422v -1.36389h 0.28422v 2.13676h 0.28422v -2.11403h 0.28422v -0.704675h 0.28422v -0.863795h 0.28422v 0.795601h 0.28422v 0.841064h 0.28422v -0.772869h 0.28422v
 0.136389h 0.28422v -1.79578h 0.28422v 2.36407h 0.28422v 1.75032h 0.28422v -2.22768h 0.28422v 1.36389h 0.28422v 2.25041h 0.28422v 0.841064h 0.28422v -3.1824h 0.28422v -0.704675h 0.28422v 0.250046h 0.28422v 0.886527h 0.28422v -0.340972h 0.28422v
 -0.386435h 0.28422v 1.00018h 0.28422v 1.00018h 0.28422v 1.86398h 0.28422v -3.04601h 0.28422v 1.11384h 0.28422v -1.20477h 0.28422v 1.88671h 0.28422v -0.295509h 0.28422v 2.93236h 0.28422v -4.93273h 0.28422v 3.2506h 0.28422v 0.272777h 0.28422v
 -2.50046h 0.28422v 2.25041h 0.28422v 0.295509h 0.28422v -1.47754h 0.28422v -0.0909258h 0.28422v 1.43208h 0.28422v 0.909258h 0.28422v -0.522823h 0.28422v 1.38662h 0.28422v -2.25041h 0.28422v 4.59175h 0.28422v -2.455h 0.28422v 1.00018h 0.28422v
 -1.43208h 0.28422v 1.54574h 0.28422v -0.0454629h 0.28422v 0.545555h 0.28422v -1.1593h 0.28422v 3.47791h 0.28422v -2.63685h 0.28422v 0.204583h 0.28422v -0.0681944h 0.28422v 2.31861h 0.28422v -1.68213h 0.28422v 2.11403h 0.28422v -2.3868h 0.28422v
 1.47754h 0.28422v 1.95491h 0.28422v -0.93199h 0.28422v -0.454629h 0.28422v 1.2275h 0.28422v 0.659212h 0.28422v 1.56847h 0.28422v -2.93236h 0.28422v 0.295509h 0.28422v 3.02328h 0.28422v -1.20477h 0.28422v 0.591018h 0.28422v 2.43227h 0.28422v
 0.0227315h 0.28422v -0.454629h 0.28422v 1.5912h 0.28422v -3.31879h 0.28422v -0.250046h 0.28422v 0.841064h 0.28422v 1.90944h 0.28422v 1.84125h 0.28422v -2.3868h 0.28422v 2.34134h 0.568441v -0.272777h 0.28422v 1.36389h 0.28422v -0.204583h 0.28422v
 -0.0227315h 0.28422v 1.06838h 0.28422v 0.613749h 0.28422v 0.113657h 0.28422v -0.431898h 0.28422v -0.93199h 0.28422v 4.50083h 0.568441v -0.818332h 0.28422v 0.15912h 0.28422v 0.522823h 0.28422v -1.93217h 0.28422v 1.75032h 0.28422v -0.227315h 0.28422v
 1.45481h 0.28422v -1.27296h 0.28422v 2.29588h 0.28422v -0.0909258h 0.568441v 2.04583h 0.28422v 0.204583h 0.28422v -1.27296h 0.28422v 3.63703h 0.28422v -0.659212h 0.28422v -1.97764h 0.28422v -0.386435h 0.28422v 1.11384h 0.28422v 1.34116h 0.28422v
 1.02292h 0.28422v 0.204583h 0.28422v -1.54574h 0.28422v 1.00018h 0.28422v 0.772869h 0.28422v 1.70486h 0.28422v -0.181852h 0.28422v 0.113657h 0.28422v 2.20495h 0.28422v -1.00018h 0.28422v -1.04565h 0.28422v 2.13676h 0.28422v 1.13657h 0.28422v
 -0.409166h 0.28422v 0.772869h 0.28422v -0.15912h 0.28422v 2.27315h 0.28422v -0.863795h 0.28422v 0.795601h 0.28422v -0.431898h 0.28422v 0.204583h 0.28422v -0.295509h 0.28422v 0.977453h 0.28422v 2.04583h 0.28422v -0.863795h 0.28422v 1.50028h 0.28422v
 1.72759h 0.28422v -2.36407h 0.28422v 1.75032h 0.28422v -0.93199h 0.28422v 1.20477h 0.28422v 0.93199h 0.28422v -0.0909258h 0.28422v 0.363703h 0.28422v 0.659212h 0.28422v 1.36389h 0.28422v -1.50028h 0.28422v 1.25023h 0.28422v 0.227315h 0.28422v
 2.11403h 0.28422v -4.15986h 0.28422v 3.50064h 0.28422v 0.613749h 0.28422v 0.0909258h 0.28422v 0.772869h 0.28422v 1.52301h 0.28422v -1.5912h 0.28422v 1.6594h 0.28422v 0.795601h 0.28422v -0.454629h 0.28422v 0.909258h 0.28422v 0.522823h 0.28422v
 0.522823h 0.28422v -0.681944h 0.28422v 0.227315h 0.28422v 1.54574h 0.28422v -0.909258h 0.28422v 0.340972h 0.28422v 0.795601h 0.28422v -0.227315h 0.28422v 1.20477h 0.28422v 0.954721h 0.28422v 1.61393h 0.28422v -2.04583h 0.28422v 0.15912h 0.28422v
 1.54574h 0.28422v 0.591018h 0.28422v -0.363703h 0.28422v -1.88671h 0.28422v 4.20532h 0.28422v 0.272777h 0.28422v -2.40953h 0.28422v 1.68213h 0.28422v 1.06838h 0.28422v 0.681944h 0.28422v 0.0227315h 0.28422v 1.06838h 0.28422v -0.250046h 0.28422v
 -0.227315h 0.28422v 0.31824h 0.28422v 0.818332h 0.28422v 0.545555h 0.28422v -1.56847h 0.28422v 0.386435h 0.28422v 2.15949h 0.28422v -0.15912h 0.28422v 1.2275h 0.28422v -1.90944h 0.28422v 1.5912h 0.28422v 1.11384h 0.28422v 1.1593h 0.28422v -1.45481h
 0.28422v -0.0454629h 0.28422v -0.272777h 0.28422v 0.568286h 0.28422v 0.659212h 0.28422v 0.772869h 0.28422v 0.227315h 0.28422v 1.77305h 0.28422v -0.568286h 0.28422v 1.20477h 0.28422v -1.77305h 0.28422v 1.11384h 0.28422v -0.250046h 0.28422v
 -0.0227315h 0.28422v 0.136389h 0.28422v 1.09111h 0.28422v 0.0909258h 0.28422v -0.15912h 0.28422v 0.250046h 0.28422v 1.20477h 0.28422v -0.795601h 0.28422v 0.704675h 0.28422v 1.11384h 0.28422v -1.04565h 0.28422v 1.18204h 0.28422v 0.750138h 0.28422v
 -0.659212h 0.28422v -0.522823h 0.28422v 1.50028h 0.28422v 0.704675h 0.28422v -0.772869h 0.28422v 0.750138h 0.28422v -0.409166h 0.28422v 0.31824h 0.28422v 0.591018h 0.28422v 0.15912h 0.28422v 0.431898h 0.28422v -0.295509h 0.28422v 1.02292h 0.28422v
 -1.04565h 0.28422v 0.863795h 0.28422v 0.31824h 0.28422v -0.522823h 0.28422v 0.681944h 0.28422v 0.0227315h 0.28422v 0.795601h 0.28422v -1.38662h 0.28422v 1.40935h 0.28422v 0.31824h 0.28422v 0.250046h 0.28422v 0.591018h 0.28422v -0.386435h 0.28422v
 0.0681944h 0.28422v -0.0681944h 0.28422v 0.454629h 0.28422v -0.386435h 0.28422v 0.454629h 0.28422v 0.0909258h 0.28422v 0.704675h 0.28422v -0.113657h 0.28422v 0.886527h 0.28422v 0.0454629h 0.28422v -1.11384h 0.28422v 1.20477h 0.28422v -0.704675h
 0.28422v 0.295509h 0.28422v 0.727407h 0.28422v -0.181852h 0.28422v 0.250046h 0.28422v -0.727407h 0.28422v 0.113657h 0.28422v 1.04565h 0.28422v 0.363703h 0.28422v -0.0681944h 0.28422v -0.0227315h 0.28422v 0.454629h 0.28422v -0.295509h 0.28422v
 0.909258h 0.28422v -0.886527h 0.28422v 0.272777h 0.28422v 0.181852h 0.28422v 0.272777h 0.28422v -0.454629h 0.28422v 0.545555h 0.28422v -0.0909258h 0.28422v -0.227315h 0.28422v 0.386435h 0.28422v 0.363703h 0.28422v 0.0909258h 0.28422v 0.204583h
 0.28422v 0.636481h 0.28422v -0.272777h 0.28422v -0.15912h 0.28422v 0.15912h 0.28422v 0.340972h 0.28422v 0.15912h 0.28422v -0.0454629h 0.28422v -0.340972h 0.28422v 0.31824h 0.28422v 0.295509h 0.28422v -0.113657h 0.28422v 0.409166h 0.28422v
 -0.0227315h 0.28422v 0.227315h 0.28422v -0.136389h 0.28422v 0.477361h 0.28422v -0.636481h 0.28422v 0.340972h 0.28422v -0.409166h 0.28422v 0.0681944h 0.28422v 0.568286h 0.28422v 0.204583h 0.28422v -0.204583h 0.28422v 0.181852h 0.28422v 0.0227315h
 0.28422v 0.272777h 0.28422v -0.386435h 0.28422v 0.0227315h 0.28422v 0.227315h 0.28422v -0.0909258h 0.28422v 0.113657h 0.28422v 0.113657h 0.28422v 0.227315h 0.28422v 0.295509h 0.28422v -0.113657h 0.28422v 0.113657h 0.28422v -0.477361h 0.28422v
 0.15912h 0.28422v 0.250046h 0.28422v 0.0681944h 0.28422v -0.136389h 0.28422v 0.0227315h 0.28422v 0.591018h 0.28422v -0.31824h 0.28422v -0.0909258h 0.28422v 0.31824h 0.28422v -0.0681944h 0.28422v 0.295509h 0.28422v -0.31824h 0.28422v -0.113657h
 0.28422v 0.0454629h 0.28422v 0.340972h 0.28422v -0.295509h 0.28422v -0.0454629h 0.28422v 0.0227315h 0.28422v 0.204583h 0.28422v -0.113657h 0.28422v 0.181852h 0.28422v 0.0227315h 0.28422v 0.31824h 0.28422v -0.31824h 0.28422v 0.181852h 0.28422v
 0.204583h 0.28422v -0.386435h 0.28422v 0.31824h 0.28422v -0.204583h 0.28422v 0.15912h 0.28422v 0.181852h 0.28422v -0.227315h 0.28422v 0.0681944h 0.28422v -0.136389h 0.28422v 0.136389h 0.28422v 0.136389h 0.28422v -0.227315h 0.28422v 0.409166h
 0.28422v -0.227315h 0.28422v 0.227315h 0.28422v -0.181852h 0.28422v 0.181852h 0.28422v -0.0681944h 0.28422v 0.0909258h 0.568441v 0.0454629h 0.28422v -0.0227315h 0.28422v 0.0227315h 0.28422v -0.204583h 0.28422v 0.0909258h 0.28422v 0.272777h 0.28422v
 -0.136389h 0.28422v 0.113657h 0.568441v 0.0454629h 0.28422v -0.0681944h 0.28422v -0.0227315h 0.28422v 0.0227315h 0.568441v 0.204583h 0.28422v -0.136389h 0.568441v -0.0227315h 0.28422" fill="none" stroke="#0000ff"/>
<rect x="130.516" y="37.9931" width="26.6457" height="21.9019" fill="white"/>
<text xml:space="preserve" x="136.866" y="44.5084" fill="black" font-size="3.60063" font-family="Helvetica">MC</text>
<path d="M131.515,43.4686h 4.66299" fill="none" stroke="#ff0000"/>
<text xml:space="preserve" x="136.866" y="55.5565" fill="black" font-size="3.60063" font-family="Helvetica">Generated</text>
<path d="M131.515,54.4195h 4.66299" fill="none" stroke="#0000ff"/>
<rect x="195.146" y="1.48993" width="177.638" height="146.013" fill="white"/>
<rect x="212.909" y="16.0912" width="142.11" height="116.81" fill="white"/>
<rect x="212.909" y="16.0912" width="142.11" height="116.81" fill="none" stroke="black"/>
<rect x="212.909" y="16.0912" width="142.11" height="116.81" fill="white"/>
<rect x="212.909" y="16.0912" width="142.11" height="116.81" fill="none" stroke="black"/>
<path d="M212.909,132.901h 45.4753v -111.248h 2.8422v 111.248h 5.68441v -0.479624h 2.8422v 0.479624h 5.68441v -0.0114916h 2.8422v 0.0114916h 76.7395" fill="none" stroke="#ff0000"/>
<path d="M212.909,132.901h 142.11" fill="none" stroke="black"/>
<path d="M212.909,129.397v 3.5043" fill="none" stroke="black"/>
<path d="M217.646,131.149v 1.75215" fill="none" stroke="black"/>
<path d="M222.383,131.149v 1.75215" fill="none" stroke="black"/>
<path d="M227.12,131.149v 1.75215" fill="none" stroke="black"/>
<path d="M231.857,131.149v 1.75215" fill="none" stroke="black"/>
<path d="M236.594,129.397v 3.5043" fill="none" stroke="black"/>
<path d="M241.331,131.149v 1.75215" fill="none" stroke="black"/>
<path d="M246.069,131.149v 1.75215" fill="none" stroke="black"/>
<path d="M250.806,131.149v 1.75215" fill="none" stroke="black"/>
<path d="M255.543,131.149v 1.75215" fill="none" stroke="black"/>
<path d="M260.28,129.397v 3.5043" fill="none" stroke="black"/>
<path d="M265.017,131.149v 1.75215" fill="none" stroke="black"/>
<path d="M269.754,131.149v 1.75215" fill="none" stroke="black"/>
<path d="M274.491,131.149v 1.75215" fill="none" stroke="black"/>
<path d="M279.228,131.149v 1.75215" fill="none" stroke="black"/>
<path d="M283.965,129.397v 3.5043" fill="none" stroke="black"/>
<path d="M288.702,131.149v 1.75215" fill="none" stroke="black"/>
<path d="M293.439,131.149v 1.75215" fill="none" stroke="black"/>
<path d="M298.176,131.149v 1.75215" fill="none" stroke="black"/>
<path d="M302.913,131.149v 1.75215" fill="none" stroke="black"/>
<path d="M307.65,129.397v 3.5043" fill="none" stroke="black"/>
<path d="M312.387,131.149v 1.75215" fill="none" stroke="black"/>
<path d="M317.124,131.149v 1.75215" fill="none" stroke="black"/>
<path d="M321.861,131.149v 1.75215" fill="none" stroke="black"/>
<path d="M326.598,131.149v 1.75215" fill="none" stroke="black"/>
<path d="M331.335,129.397v 3.5043" fill="none" stroke="black"/>
<path d="M336.072,131.149v 1.75215" fill="none" stroke="black"/>
<path d="M340.809,131.149v 1.75215" fill="none" stroke="black"/>
<path d="M345.546,131.149v 1.75215" fill="none" stroke="black"/>
<path d="M350.283,131.149v 1.75215" fill="none" stroke="black"/>
<path d="M355.02,129.397v 3.5043" fill="none" stroke="black"/>
<text xml:space="preserve" x="212.941" y="137.629" fill="black" font-size="5.18848" font-family="Helvetica">1</text>
<text xml:space="preserve" x="210.1" y="137.629" fill="black" font-size="5.18848" font-family="Times">&#8722;</text>
<text xml:space="preserve" x="234.09" y="137.629" fill="black" font-size="5.18848" font-family="Helvetica">0.5</text>
<text xml:space="preserve" x="231.565" y="137.629" fill="black" font-size="5.18848" font-family="Times">&#8722;</text>
<text xml:space="preserve" x="258.712" y="137.629" fill="black" font-size="5.18848" font-family="Helvetica">0</text>
<text xml:space="preserve" x="280.492" y="137.629" fill="black" font-size="5.18848" font-family="Helvetica">0.5</text>
<text xml:space="preserve" x="306.692" y="137.629" fill="black" font-size="5.18848" font-family="Helvetica">1</text>
<text xml:space="preserve" x="327.842" y="137.629" fill="black" font-size="5.18848" font-family="Helvetica">1.5</text>
<text xml:space="preserve" x="353.726" y="137.629" fill="black" font-size="5.18848" font-family="Helvetica">2</text>
<text xml:space="preserve" x="329.42" y="142.364" fill="black" font-size="5.18848" font-family="Helvetica">M_kf (GeV) </text>
<path d="M212.909,132.901v -116.81" fill="none" stroke="black"/>
<path d="M217.173,132.901h -4.26331" fill="none" stroke="black"/>
<path d="M215.041,130.482h -2.13165" fill="none" stroke="black"/>
<path d="M215.041,128.063h -2.13165" fill="none" stroke="black"/>
<path d="M215.041,125.643h -2.13165" fill="none" stroke="black"/>
<path d="M215.041,123.224h -2.13165" fill="none" stroke="black"/>
<path d="M217.173,120.805h -4.26331" fill="none" stroke="black"/>
<path d="M215.041,118.386h -2.13165" fill="none" stroke="black"/>
<path d="M215.041,115.966h -2.13165" fill="none" stroke="black"/>
<path d="M215.041,113.547h -2.13165" fill="none" stroke="black"/>
<path d="M215.041,111.128h -2.13165" fill="none" stroke="black"/>
<path d="M217.173,108.708h -4.26331" fill="none" stroke="black"/>
<path d="M215.041,106.289h -2.13165" fill="none" stroke="black"/>
<path d="M215.041,103.87h -2.13165" fill="none" stroke="black"/>
<path d="M215.041,101.451h -2.13165" fill="none" stroke="black"/>
<path d="M215.041,99.0313h -2.13165" fill="none" stroke="black"/>
<path d="M217.173,96.612h -4.26331" fill="none" stroke="black"/>
<path d="M215.041,94.1927h -2.13165" fill="none" stroke="black"/>
<path d="M215.041,91.7734h -2.13165" fill="none" stroke="black"/>
<path d="M215.041,89.3541h -2.13165" fill="none" stroke="black"/>
<path d="M215.041,86.9348h -2.13165" fill="none" stroke="black"/>
<path d="M217.173,84.5155h -4.26331" fill="none" stroke="black"/>
<path d="M215.041,82.0962h -2.13165" fill="none" stroke="black"/>
<path d="M215.041,79.677h -2.13165" fill="none" stroke="black"/>
<path d="M215.041,77.2577h -2.13165" fill="none" stroke="black"/>
<path d="M215.041,74.8384h -2.13165" fill="none" stroke="black"/>
<path d="M217.173,72.4191h -4.26331" fill="none" stroke="black"/>
<path d="M215.041,69.9998h -2.13165" fill="none" stroke="black"/>
<path d="M215.041,67.5805h -2.13165" fill="none" stroke="black"/>
<path d="M215.041,65.1612h -2.13165" fill="none" stroke="black"/>
<path d="M215.041,62.7419h -2.13165" fill="none" stroke="black"/>
<path d="M217.173,60.3226h -4.26331" fill="none" stroke="black"/>
<path d="M215.041,57.9034h -2.13165" fill="none" stroke="black"/>
<path d="M215.041,55.4841h -2.13165" fill="none" stroke="black"/>
<path d="M215.041,53.0648h -2.13165" fill="none" stroke="black"/>
<path d="M215.041,50.6455h -2.13165" fill="none" stroke="black"/>
<path d="M217.173,48.2262h -4.26331" fill="none" stroke="black"/>
<path d="M215.041,45.8069h -2.13165" fill="none" stroke="black"/>
<path d="M215.041,43.3876h -2.13165" fill="none" stroke="black"/>
<path d="M215.041,40.9683h -2.13165" fill="none" stroke="black"/>
<path d="M215.041,38.549h -2.13165" fill="none" stroke="black"/>
<path d="M217.173,36.1298h -4.26331" fill="none" stroke="black"/>
<path d="M215.041,33.7105h -2.13165" fill="none" stroke="black"/>
<path d="M215.041,31.2912h -2.13165" fill="none" stroke="black"/>
<path d="M215.041,28.8719h -2.13165" fill="none" stroke="black"/>
<path d="M215.041,26.4526h -2.13165" fill="none" stroke="black"/>
<path d="M217.173,24.0333h -4.26331" fill="none" stroke="black"/>
<path d="M217.173,24.0333h -4.26331" fill="none" stroke="black"/>
<path d="M215.041,21.614h -2.13165" fill="none" stroke="black"/>
<path d="M215.041,19.1947h -2.13165" fill="none" stroke="black"/>
<path d="M215.041,16.7754h -2.13165" fill="none" stroke="black"/>
<text xml:space="preserve" x="209.468" y="134.788" fill="black" font-size="5.18848" font-family="Helvetica">0</text>
<text xml:space="preserve" x="204.102" y="122.477" fill="black" font-size="5.18848" font-family="Helvetica">100</text>
<text xml:space="preserve" x="204.102" y="110.482" fill="black" font-size="5.18848" font-family="Helvetica">200</text>
<text xml:space="preserve" x="204.102" y="98.4866" fill="black" font-size="5.18848" font-family="Helvetica">300</text>
<text xml:space="preserve" x="204.102" y="86.1758" fill="black" font-size="5.18848" font-family="Helvetica">400</text>
<text xml:space="preserve" x="204.102" y="74.1806" fill="black" font-size="5.18848" font-family="Helvetica">500</text>
<text xml:space="preserve" x="204.102" y="62.1854" fill="black" font-size="5.18848" font-family="Helvetica">600</text>
<text xml:space="preserve" x="204.102" y="49.8746" fill="black" font-size="5.18848" font-family="Helvetica">700</text>
<text xml:space="preserve" x="204.102" y="37.8795" fill="black" font-size="5.18848" font-family="Helvetica">800</text>
<text xml:space="preserve" x="204.102" y="25.8843" fill="black" font-size="5.18848" font-family="Helvetica">900</text>
<text xml:space="preserve" x="220.201" y="12.9421" fill="black" font-size="3.62565" font-family="Helvetica">3</text>
<text xml:space="preserve" x="215.15" y="15.4674" fill="black" font-size="5.18848" font-family="Helvetica">10</text>
<text xml:space="preserve" x="212.625" y="15.4674" fill="black" font-size="5.18848" font-family="Times">&#0215;</text>
<g transform="rotate(-90,200.63,30.6192)">
<text xml:space="preserve" x="200.63" y="30.6192" fill="black" font-size="5.18848" font-family="Helvetica">Counts</text>
</g>
<rect x="333.703" y="10.9807" width="35.5276" height="23.362" fill="white"/>
<path d="M333.703,34.3428h 35.5276" fill="none" stroke="black"/>
<path d="M369.231,34.3428v -23.362" fill="none" stroke="black"/>
<path d="M369.231,10.9807h -35.5276" fill="none" stroke="black"/>
<path d="M333.703,10.9807v 23.362" fill="none" stroke="black"/>
<text xml:space="preserve" x="348.675" y="16.0988" fill="black" font-size="5.4296" font-family="Helvetica">h1</text>
<path d="M333.703,16.8213h 35.5276" fill="none" stroke="black"/>
<text xml:space="preserve" x="335.417" y="21.1494" fill="black" font-size="4.02486" font-family="Helvetica">Entries </text>
<text xml:space="preserve" x="354.673" y="20.8337" fill="black" font-size="4.02486" font-family="Helvetica"> 923733</text>
<text xml:space="preserve" x="335.417" y="27.1469" fill="black" font-size="4.02486" font-family="Helvetica">Mean  </text>
<text xml:space="preserve" x="351.832" y="26.8313" fill="black" font-size="4.02486" font-family="Helvetica"> 0.007073</text>
<text xml:space="preserve" x="335.417" y="32.8289" fill="black" font-size="4.02486" font-family="Helvetica">Std Dev   </text>
<text xml:space="preserve" x="356.251" y="32.5132" fill="black" font-size="4.02486" font-family="Helvetica"> 0.0131</text>
<path d="M212.909,132.901h 45.4753v -2.29711h 2.8422v -4.59568h 2.8422v -0.0376199h 2.8422v -0.000967716h 2.8422v 0.0893927h 2.8422v 0.0516518h 2.8422v 0.0644741h 2.8422v 0.117336h 2.8422v 0.13294h 2.8422v 0.24713h 2.8422v 0.248098h 2.8422v 0.348136h
 2.8422v 0.412731h 2.8422v 0.401118h 2.8422v 0.414061h 2.8422v 0.486156h 2.8422v 0.489059h 2.8422v 0.445875h 2.8422v 0.429787h 2.8422v 0.422166h 2.8422v 0.352732h 2.8422v 0.33991h 2.8422v 0.287774h 2.8422v 0.23576h 2.8422v 0.214349h 2.8422v 0.148544h
 2.8422v 0.134271h 2.8422v 0.129311h 2.8422v 0.074877h 2.8422v 0.0603613h 2.8422v 0.0425795h 2.8422v 0.0326604h 2.8422v 0.0262493h 2.8422v 0.0189914h 2.8422" fill="none" stroke="#0000ff"/>
<rect x="319.492" y="37.9931" width="26.6457" height="21.9019" fill="white"/>
<text xml:space="preserve" x="325.948" y="44.5084" fill="black" font-size="3.60063" font-family="Helvetica">MC</text>
<path d="M320.491,43.4686h 4.66299" fill="none" stroke="#ff0000"/>
<text xml:space="preserve" x="325.948" y="55.5565" fill="black" font-size="3.60063" font-family="Helvetica">Generated</text>
<path d="M320.491,54.4195h 4.66299" fill="none" stroke="#0000ff"/>
<rect x="384.122" y="1.48993" width="177.638" height="146.013" fill="white"/>
<rect x="401.886" y="16.0912" width="142.11" height="116.81" fill="white"/>
<rect x="401.886" y="16.0912" width="142.11" height="116.81" fill="none" stroke="black"/>
<rect x="401.886" y="16.0912" width="142.11" height="116.81" fill="white"/>
<rect x="401.886" y="16.0912" width="142.11" height="116.81" fill="none" stroke="black"/>
<path d="M401.886,132.901h 47.1806v -0.20156h 0.28422v -1.76029h 0.28422v -3.10403h 0.28422v -2.72778h 0.28422v -2.48591h 0.28422v -3.35933h 0.28422v -2.3381h 0.28422v -1.45123h 0.28422v -3.14434h 0.28422v -2.72778h 0.28422v -2.14997h 0.28422v
 -3.80277h 0.28422v -1.66623h 0.28422v -2.17685h 0.28422v -2.63372h 0.28422v -3.25184h 0.28422v -1.07499h 0.28422v -3.29215h 0.28422v -3.14434h 0.28422v -0.335934h 0.28422v -3.91027h 0.28422v -1.24967h 0.28422v -3.26527h 0.28422v -1.51842h 0.28422v
 -1.10186h 0.28422v -2.99653h 0.28422v -1.76029h 0.28422v -2.95621h 0.28422v -1.67967h 0.28422v -1.82748h 0.28422v -2.28435h 0.28422v -3.52058h 0.28422v 1.06155h 0.28422v -2.14997h 0.28422v -4.81057h 0.28422v -1.28998h 0.28422v -1.31686h 0.28422v
 -0.577806h 0.28422v -2.40528h 0.28422v -0.833115h 0.28422v -3.07715h 0.28422v -0.85999h 0.28422v -2.20372h 0.28422v -1.10186h 0.28422v 0.362808h 0.28422v -1.45123h 0.28422v -0.376245h 0.28422v -0.268747h 0.28422v -4.20589h 0.28422v 1.1153h 0.28422v
 -1.98873h 0.28422v 0.913739h 0.28422v -5.15994h 0.28422v 1.49154h 0.28422v -1.55873h 0.28422v 1.35717h 0.28422v -1.61248h 0.28422v -1.07499h 0.28422v 1.51842h 0.28422v -1.74685h 0.28422v 0.873427h 0.28422v -1.18249h 0.28422v -2.24404h 0.28422v
 1.1153h 0.28422v 0.886864h 0.28422v -0.0268747h 0.28422v -2.40528h 0.28422v 0.913739h 0.28422v 1.27655h 0.28422v -3.06371h 0.28422v -0.241872h 0.28422v 1.8006h 0.28422v 1.53186h 0.28422v 0.255309h 0.28422v 0.335934h 0.28422v 0.349371h 0.28422v
 -0.685304h 0.28422v 1.2228h 0.28422v -0.188123h 0.28422v 0.497182h 0.28422v 3.05028h 0.28422v -1.14217h 0.28422v 0.20156h 0.28422v -0.80624h 0.28422v 1.97529h 0.28422v 1.78717h 0.28422v -1.96185h 0.28422v 1.24967h 0.28422v 1.67967h 0.28422v
 -0.537494h 0.28422v 2.86215h 0.28422v -0.080624h 0.28422v 0.873427h 0.28422v 1.30342h 0.28422v -0.295621h 0.28422v 1.2228h 0.28422v 0.443432h 0.28422v 1.34373h 0.28422v 2.04248h 0.28422v 0.080624h 0.28422v 0.846552h 0.28422v 0.779366h 0.28422v
 2.90247h 0.28422v 0.0134373h 0.28422v 1.23624h 0.28422v 2.71434h 0.28422v -0.214997h 0.28422v 3.25184h 0.28422v -1.07499h 0.28422v 1.07499h 0.28422v 2.4456h 0.28422v -0.134373h 0.28422v 1.27655h 0.28422v 1.39748h 0.568441v 4.04464h 0.28422v
 -2.56653h 0.28422v 3.37277h 0.28422v 1.16905h 0.28422v 1.10186h 0.28422v -1.50498h 0.28422v 2.27091h 0.28422v 2.86215h 0.28422v -1.18249h 0.28422v 1.4378h 0.28422v 3.85652h 0.28422v -0.60468h 0.28422v 0.60468h 0.28422v 1.6931h 0.28422v 1.88123h
 0.28422v -0.0134373h 0.28422v 0.335934h 0.28422v 2.00216h 0.28422v 2.14997h 0.28422v -0.470307h 0.28422v 1.93498h 0.28422v 0.524056h 0.28422v 0.618118h 0.28422v 1.66623h 0.28422v -0.510619h 0.28422v 3.18465h 0.28422v -0.20156h 0.28422v 0.671867h
 0.28422v 1.34373h 0.28422v 1.84092h 0.28422v 0.550931h 0.28422v 0.752491h 0.28422v -0.0671867h 0.28422v 2.19029h 0.28422v 0.309059h 0.28422v 1.4378h 0.28422v 0.040312h 0.28422v 2.06935h 0.28422v 0.510619h 0.28422v 0.335934h 0.28422v 1.07499h
 0.28422v 0.107499h 0.28422v 1.62592h 0.28422v 0.40312h 0.28422v 0.0134373h 0.28422v 1.47811h 0.28422v 1.84092h 0.28422v 0.0537494h 0.28422v 0.362808h 0.28422v 0.60468h 0.28422v 1.04811h 0.28422v -0.349371h 0.28422v 0.510619h 0.28422v 2.02904h
 0.28422v -0.45687h 0.28422v -0.0537494h 0.28422v 1.19592h 0.28422v 0.980926h 0.28422v 0.45687h 0.28422v 0.214997h 0.28422v 1.10186h 0.28422v -0.550931h 0.28422v 1.35717h 0.28422v 0.618118h 0.28422v -0.107499h 0.28422v 0.147811h 0.28422v 1.19592h
 0.28422v -0.470307h 0.28422v 1.73342h 0.28422v -1.55873h 0.28422v 2.00216h 0.28422v 0.725616h 0.28422v -0.846552h 0.28422v 1.10186h 0.28422v 0.537494h 0.28422v -0.45687h 0.28422v 1.10186h 0.28422v 0.20156h 0.28422v 0.80624h 0.28422v -0.322496h
 0.28422v 0.335934h 0.28422v 0.833115h 0.28422v -0.147811h 0.28422v 0.483744h 0.28422v 0.671867h 0.28422v 0.322496h 0.28422v -0.134373h 0.28422v 0.147811h 0.28422v 0.322496h 0.28422v 0.255309h 0.28422v 1.06155h 0.28422v -0.080624h 0.28422v -0.228435h
 0.28422v 0.792803h 0.28422v -0.873427h 0.28422v 1.04811h 0.28422v -0.510619h 0.28422v 0.631555h 0.28422v 0.147811h 0.28422v 0.429995h 0.28422v 0.0134373h 0.28422v -0.282184h 0.28422v 0.765928h 0.28422v -0.0268747h 0.28422v 0.107499h 0.28422v
 0.685304h 0.28422v -0.134373h 0.28422v 0.510619h 0.28422v -0.174685h 0.28422v 0.429995h 0.28422v -0.940614h 0.28422v 0.309059h 0.28422v 0.739054h 0.568441v 0.0134373h 0.28422v 0.161248h 0.28422v 0.174685h 0.28422v 0.295621h 0.28422v 0.241872h
 0.28422v 0.040312h 0.28422v -0.120936h 0.28422v -0.040312h 0.568441v 0.416558h 0.28422v 0.080624h 0.28422v -0.0134373h 0.28422v 0.255309h 0.28422v 0.107499h 0.28422v -0.040312h 0.28422v 0.174685h 0.28422v -0.228435h 0.28422v 0.577806h 0.28422v
 -0.268747h 0.28422v 0.174685h 0.568441v 0.0671867h 0.28422v 0.174685h 0.28422v -0.080624h 0.28422v -0.161248h 0.28422v 0.188123h 0.28422v 0.241872h 0.28422v 0.0134373h 0.28422v 0.0940614h 0.28422v -0.362808h 0.28422v 0.362808h 0.28422v 0.0940614h
 0.28422v 0.040312h 0.28422v -0.107499h 0.28422v 0.322496h 0.28422v -0.309059h 0.28422v 0.120936h 0.28422v 0.255309h 0.28422v -0.0537494h 0.28422v 0.040312h 0.28422v 0.0537494h 0.28422v -0.174685h 0.28422v 0.255309h 0.28422v -0.0940614h 0.28422v
 0.120936h 0.28422v 0.0134373h 0.28422v -0.0134373h 0.28422v 0.0134373h 0.28422v 0.0134373h 0.28422v 0.188123h 0.28422v -0.107499h 0.28422v 0.0134373h 0.28422v -0.0268747h 0.28422v 0.161248h 0.28422v 0.0134373h 0.28422v -0.0268747h 0.28422v
 -0.107499h 0.28422v 0.0268747h 0.28422v -0.040312h 0.28422v 0.241872h 0.28422v -0.0671867h 0.28422v 0.0134373h 0.28422v -0.0537494h 0.28422v 0.0537494h 0.28422v 0.0537494h 0.28422v -0.0537494h 0.28422v 0.107499h 0.28422v -0.0268747h 0.28422v
 -0.0268747h 0.28422v 0.0537494h 0.568441v -0.0537494h 0.28422v 0.040312h 0.28422v 0.080624h 0.28422v -0.0537494h 0.28422v 0.0268747h 0.28422v -0.0134373h 0.28422v -0.0268747h 0.28422v 0.0537494h 0.28422v -0.0537494h 0.28422v 0.0268747h 0.28422v
 0.0134373h 0.568441v 0.080624h 0.28422v -0.0268747h 0.28422v -0.0134373h 0.28422v -0.040312h 0.28422v 0.0134373h 0.28422v 0.0134373h 0.28422v 0.0268747h 0.28422v 0.0671867h 0.28422v -0.040312h 0.28422v 0.040312h 0.28422v -0.0268747h 0.568441v
 -0.0268747h 0.568441v 0.0134373h 0.28422v 0.0134373h 0.28422v 0.0134373h 0.28422v -0.0940614h 0.28422v 0.080624h 0.28422v 0.040312h 0.28422v -0.0134373h 0.28422v -0.0134373h 0.28422" fill="none" stroke="#ff0000"/>
<path d="M401.886,132.901h 142.11" fill="none" stroke="black"/>
<path d="M401.886,129.397v 3.5043" fill="none" stroke="black"/>
<path d="M406.623,131.149v 1.75215" fill="none" stroke="black"/>
<path d="M411.36,131.149v 1.75215" fill="none" stroke="black"/>
<path d="M416.097,131.149v 1.75215" fill="none" stroke="black"/>
<path d="M420.834,131.149v 1.75215" fill="none" stroke="black"/>
<path d="M425.571,129.397v 3.5043" fill="none" stroke="black"/>
<path d="M430.308,131.149v 1.75215" fill="none" stroke="black"/>
<path d="M435.045,131.149v 1.75215" fill="none" stroke="black"/>
<path d="M439.782,131.149v 1.75215" fill="none" stroke="black"/>
<path d="M444.519,131.149v 1.75215" fill="none" stroke="black"/>
<path d="M449.256,129.397v 3.5043" fill="none" stroke="black"/>
<path d="M453.993,131.149v 1.75215" fill="none" stroke="black"/>
<path d="M458.73,131.149v 1.75215" fill="none" stroke="black"/>
<path d="M463.467,131.149v 1.75215" fill="none" stroke="black"/>
<path d="M468.204,131.149v 1.75215" fill="none" stroke="black"/>
<path d="M472.941,129.397v 3.5043" fill="none" stroke="black"/>
<path d="M477.678,131.149v 1.75215" fill="none" stroke="black"/>
<path d="M482.415,131.149v 1.75215" fill="none" stroke="black"/>
<path d="M487.152,131.149v 1.75215" fill="none" stroke="black"/>
<path d="M491.889,131.149v 1.75215" fill="none" stroke="black"/>
<path d="M496.626,129.397v 3.5043" fill="none" stroke="black"/>
<path d="M501.363,131.149v 1.75215" fill="none" stroke="black"/>
<path d="M506.1,131.149v 1.75215" fill="none" stroke="black"/>
<path d="M510.837,131.149v 1.75215" fill="none" stroke="black"/>
<path d="M515.574,131.149v 1.75215" fill="none" stroke="black"/>
<path d="M520.311,129.397v 3.5043" fill="none" stroke="black"/>
<path d="M525.048,131.149v 1.75215" fill="none" stroke="black"/>
<path d="M529.785,131.149v 1.75215" fill="none" stroke="black"/>
<path d="M534.522,131.149v 1.75215" fill="none" stroke="black"/>
<path d="M539.259,131.149v 1.75215" fill="none" stroke="black"/>
<path d="M543.996,129.397v 3.5043" fill="none" stroke="black"/>
<text xml:space="preserve" x="402.022" y="137.629" fill="black" font-size="5.18848" font-family="Helvetica">1</text>
<text xml:space="preserve" x="399.181" y="137.629" fill="black" font-size="5.18848" font-family="Times">&#8722;</text>
<text xml:space="preserve" x="423.172" y="137.629" fill="black" font-size="5.18848" font-family="Helvetica">0.5</text>
<text xml:space="preserve" x="420.646" y="137.629" fill="black" font-size="5.18848" font-family="Times">&#8722;</text>
<text xml:space="preserve" x="447.793" y="137.629" fill="black" font-size="5.18848" font-family="Helvetica">0</text>
<text xml:space="preserve" x="469.258" y="137.629" fill="black" font-size="5.18848" font-family="Helvetica">0.5</text>
<text xml:space="preserve" x="495.458" y="137.629" fill="black" font-size="5.18848" font-family="Helvetica">1</text>
<text xml:space="preserve" x="516.608" y="137.629" fill="black" font-size="5.18848" font-family="Helvetica">1.5</text>
<text xml:space="preserve" x="542.492" y="137.629" fill="black" font-size="5.18848" font-family="Helvetica">2</text>
<text xml:space="preserve" x="521.342" y="142.364" fill="black" font-size="5.18848" font-family="Helvetica">delta_k_T </text>
<path d="M401.886,132.901v -116.81" fill="none" stroke="black"/>
<path d="M406.149,132.901h -4.26331" fill="none" stroke="black"/>
<path d="M404.017,130.214h -2.13165" fill="none" stroke="black"/>
<path d="M404.017,127.526h -2.13165" fill="none" stroke="black"/>
<path d="M404.017,124.839h -2.13165" fill="none" stroke="black"/>
<path d="M404.017,122.151h -2.13165" fill="none" stroke="black"/>
<path d="M406.149,119.464h -4.26331" fill="none" stroke="black"/>
<path d="M404.017,116.777h -2.13165" fill="none" stroke="black"/>
<path d="M404.017,114.089h -2.13165" fill="none" stroke="black"/>
<path d="M404.017,111.402h -2.13165" fill="none" stroke="black"/>
<path d="M404.017,108.714h -2.13165" fill="none" stroke="black"/>
<path d="M406.149,106.027h -4.26331" fill="none" stroke="black"/>
<path d="M404.017,103.339h -2.13165" fill="none" stroke="black"/>
<path d="M404.017,100.652h -2.13165" fill="none" stroke="black"/>
<path d="M404.017,97.9642h -2.13165" fill="none" stroke="black"/>
<path d="M404.017,95.2768h -2.13165" fill="none" stroke="black"/>
<path d="M406.149,92.5893h -4.26331" fill="none" stroke="black"/>
<path d="M404.017,89.9018h -2.13165" fill="none" stroke="black"/>
<path d="M404.017,87.2144h -2.13165" fill="none" stroke="black"/>
<path d="M404.017,84.5269h -2.13165" fill="none" stroke="black"/>
<path d="M404.017,81.8394h -2.13165" fill="none" stroke="black"/>
<path d="M406.149,79.152h -4.26331" fill="none" stroke="black"/>
<path d="M404.017,76.4645h -2.13165" fill="none" stroke="black"/>
<path d="M404.017,73.777h -2.13165" fill="none" stroke="black"/>
<path d="M404.017,71.0896h -2.13165" fill="none" stroke="black"/>
<path d="M404.017,68.4021h -2.13165" fill="none" stroke="black"/>
<path d="M406.149,65.7146h -4.26331" fill="none" stroke="black"/>
<path d="M404.017,63.0271h -2.13165" fill="none" stroke="black"/>
<path d="M404.017,60.3397h -2.13165" fill="none" stroke="black"/>
<path d="M404.017,57.6522h -2.13165" fill="none" stroke="black"/>
<path d="M404.017,54.9647h -2.13165" fill="none" stroke="black"/>
<path d="M406.149,52.2773h -4.26331" fill="none" stroke="black"/>
<path d="M404.017,49.5898h -2.13165" fill="none" stroke="black"/>
<path d="M404.017,46.9023h -2.13165" fill="none" stroke="black"/>
<path d="M404.017,44.2149h -2.13165" fill="none" stroke="black"/>
<path d="M404.017,41.5274h -2.13165" fill="none" stroke="black"/>
<path d="M406.149,38.8399h -4.26331" fill="none" stroke="black"/>
<path d="M404.017,36.1525h -2.13165" fill="none" stroke="black"/>
<path d="M404.017,33.465h -2.13165" fill="none" stroke="black"/>
<path d="M404.017,30.7775h -2.13165" fill="none" stroke="black"/>
<path d="M404.017,28.0901h -2.13165" fill="none" stroke="black"/>
<path d="M406.149,25.4026h -4.26331" fill="none" stroke="black"/>
<path d="M406.149,25.4026h -4.26331" fill="none" stroke="black"/>
<path d="M404.017,22.7151h -2.13165" fill="none" stroke="black"/>
<path d="M404.017,20.0277h -2.13165" fill="none" stroke="black"/>
<path d="M404.017,17.3402h -2.13165" fill="none" stroke="black"/>
<text xml:space="preserve" x="398.234" y="134.788" fill="black" font-size="5.18848" font-family="Helvetica">0</text>
<text xml:space="preserve" x="390.343" y="121.214" fill="black" font-size="5.18848" font-family="Helvetica">1000</text>
<text xml:space="preserve" x="390.343" y="107.641" fill="black" font-size="5.18848" font-family="Helvetica">2000</text>
<text xml:space="preserve" x="390.343" y="94.383" fill="black" font-size="5.18848" font-family="Helvetica">3000</text>
<text xml:space="preserve" x="390.343" y="80.8095" fill="black" font-size="5.18848" font-family="Helvetica">4000</text>
<text xml:space="preserve" x="390.343" y="67.5517" fill="black" font-size="5.18848" font-family="Helvetica">5000</text>
<text xml:space="preserve" x="390.343" y="53.9782" fill="black" font-size="5.18848" font-family="Helvetica">6000</text>
<text xml:space="preserve" x="390.343" y="40.7204" fill="black" font-size="5.18848" font-family="Helvetica">7000</text>
<text xml:space="preserve" x="390.343" y="27.1469" fill="black" font-size="5.18848" font-family="Helvetica">8000</text>
<g transform="rotate(-90,386.87,30.6192)">
<text xml:space="preserve" x="386.87" y="30.6192" fill="black" font-size="5.18848" font-family="Helvetica">Counts</text>
</g>
<rect x="522.68" y="10.9807" width="35.5276" height="23.362" fill="white"/>
<path d="M522.68,34.3428h 35.5276" fill="none" stroke="black"/>
<path d="M558.207,34.3428v -23.362" fill="none" stroke="black"/>
<path d="M558.207,10.9807h -35.5276" fill="none" stroke="black"/>
<path d="M522.68,10.9807v 23.362" fill="none" stroke="black"/>
<text xml:space="preserve" x="537.441" y="16.0988" fill="black" font-size="5.4296" font-family="Helvetica">h2</text>
<path d="M522.68,16.8213h 35.5276" fill="none" stroke="black"/>
<text xml:space="preserve" x="524.183" y="21.1494" fill="black" font-size="4.21767" font-family="Helvetica">Entries </text>
<text xml:space="preserve" x="542.807" y="21.1494" fill="black" font-size="4.21767" font-family="Helvetica"> 923733</text>
<text xml:space="preserve" x="524.183" y="27.1469" fill="black" font-size="4.21767" font-family="Helvetica">Mean  </text>
<text xml:space="preserve" x="543.754" y="27.1469" fill="black" font-size="4.21767" font-family="Helvetica"> 0.5225</text>
<text xml:space="preserve" x="524.183" y="32.8289" fill="black" font-size="4.21767" font-family="Helvetica">Std Dev   </text>
<text xml:space="preserve" x="543.754" y="32.8289" fill="black" font-size="4.21767" font-family="Helvetica"> 0.2817</text>
<path d="M401.886,132.901h 47.1806v -25.3697h 0.28422v -51.3441h 0.28422v 0.0134373h 0.28422v 0.309059h 0.28422v 0.752491h 0.28422v 0.376245h 0.28422v -1.38405h 0.28422v 0.833115h 0.28422v -1.19592h 0.28422v 2.55309h 0.28422v -3.3459h 0.28422v
 0.80624h 0.28422v -2.0156h 0.28422v 1.96185h 0.28422v -0.537494h 0.28422v 1.89466h 0.28422v -0.913739h 0.28422v -1.4378h 0.28422v 1.20936h 0.28422v 0.0134373h 0.28422v -0.483744h 0.28422v -0.752491h 0.28422v 1.84092h 0.28422v -0.483744h 0.28422v
 -0.497182h 0.28422v -0.618118h 0.28422v 1.03468h 0.28422v -0.550931h 0.28422v 0.0134373h 0.28422v 1.53186h 0.28422v -1.2228h 0.28422v 0.591243h 0.28422v -0.980926h 0.28422v 0.483744h 0.28422v 1.81404h 0.28422v -0.537494h 0.28422v -1.18249h 0.28422v
 -0.0671867h 0.28422v 2.82184h 0.28422v -3.29215h 0.28422v 0.161248h 0.28422v 2.8084h 0.28422v -1.57217h 0.28422v -0.65843h 0.28422v 0.591243h 0.568441v 0.792803h 0.28422v -0.470307h 0.28422v -2.75465h 0.28422v 0.980926h 0.28422v 3.61464h 0.28422v
 0.268747h 0.28422v -0.725616h 0.28422v 0.739054h 0.28422v -0.819678h 0.28422v 0.080624h 0.28422v -0.577806h 0.28422v 2.31122h 0.28422v -1.67967h 0.28422v -1.51842h 0.28422v 0.564368h 0.28422v -0.295621h 0.28422v 1.30342h 0.28422v -1.70654h 0.28422v
 2.04248h 0.28422v 0.0134373h 0.28422v 0.322496h 0.28422v 2.21716h 0.28422v -3.41308h 0.28422v 1.27655h 0.28422v -0.335934h 0.28422v -0.416558h 0.28422v 1.34373h 0.28422v 0.45687h 0.28422v 0.268747h 0.28422v -0.886864h 0.28422v 1.10186h 0.28422v
 0.577806h 0.28422v -1.38405h 0.28422v 1.76029h 0.28422v -1.10186h 0.28422v 0.577806h 0.28422v 0.20156h 0.28422v -0.994363h 0.28422v 1.24967h 0.28422v 0.913739h 0.28422v 0.846552h 0.28422v -0.85999h 0.28422v 1.20936h 0.28422v -0.389683h 0.28422v
 0.45687h 0.28422v 0.618118h 0.28422v -0.309059h 0.28422v 1.19592h 0.28422v -1.10186h 0.28422v 0.255309h 0.28422v 1.66623h 0.28422v -0.161248h 0.28422v -1.26311h 0.28422v 1.93498h 0.28422v 0.161248h 0.28422v 0.60468h 0.28422v 0.134373h 0.28422v
 0.980926h 0.28422v -1.58561h 0.28422v 2.36497h 0.28422v -0.188123h 0.28422v 1.55873h 0.28422v 0.147811h 0.28422v 0.927176h 0.28422v -2.17685h 0.28422v -0.309059h 0.28422v 2.29779h 0.28422v 0.524056h 0.28422v 0.577806h 0.28422v 0.443432h 0.28422v
 0.107499h 0.28422v 0.20156h 0.28422v 1.41092h 0.28422v 0.349371h 0.28422v -0.618118h 0.28422v 0.309059h 0.28422v 2.82184h 0.28422v -0.268747h 0.28422v 0.376245h 0.28422v -1.23624h 0.28422v 0.443432h 0.28422v 0.927176h 0.28422v 0.537494h 0.28422v
 0.900302h 0.28422v 0.0268747h 0.28422v 1.49154h 0.28422v 0.550931h 0.28422v 1.20936h 0.28422v -1.07499h 0.28422v -0.698742h 0.28422v 1.84092h 0.28422v 0.40312h 0.28422v 0.819678h 0.28422v -1.38405h 0.28422v 1.61248h 0.28422v 1.34373h 0.28422v
 0.550931h 0.28422v 0.927176h 0.28422v -1.46467h 0.28422v 2.86215h 0.28422v -0.846552h 0.28422v 0.873427h 0.28422v 1.03468h 0.28422v 0.671867h 0.28422v 0.080624h 0.28422v -0.120936h 0.28422v 0.080624h 0.28422v 1.47811h 0.28422v 0.846552h 0.28422v
 1.39748h 0.28422v -1.07499h 0.28422v 0.537494h 0.28422v 0.80624h 0.28422v 1.1153h 0.28422v -0.739054h 0.28422v 1.46467h 0.28422v 0.228435h 0.28422v 0.940614h 0.28422v 0.85999h 0.28422v -2.48591h 0.28422v 2.88903h 0.28422v 0.174685h 0.28422v
 0.429995h 0.28422v 1.51842h 0.28422v 0.0940614h 0.28422v 0.524056h 0.28422v 0.349371h 0.28422v 0.376245h 0.28422v 0.685304h 0.28422v 0.349371h 0.28422v 0.0134373h 0.28422v 0.483744h 0.28422v 0.228435h 0.28422v 0.510619h 0.28422v 1.78717h 0.28422v
 -0.429995h 0.28422v -0.0268747h 0.28422v 0.980926h 0.28422v 0.255309h 0.28422v -0.389683h 0.28422v 2.8084h 0.28422v -2.0156h 0.28422v 1.92154h 0.28422v 0.147811h 0.28422v 0.739054h 0.28422v 1.12874h 0.28422v -0.591243h 0.28422v 0.443432h 0.28422v
 0.0671867h 0.28422v -0.0671867h 0.28422v 0.85999h 0.28422v 1.46467h 0.28422v -0.886864h 0.28422v 1.10186h 0.28422v 1.30342h 0.28422v -0.792803h 0.28422v -0.443432h 0.28422v 0.644992h 0.28422v 0.65843h 0.28422v 0.497182h 0.28422v 1.84092h 0.28422v
 -0.228435h 0.28422v -0.80624h 0.28422v 0.819678h 0.28422v -0.255309h 0.28422v 0.524056h 0.28422v 0.644992h 0.28422v -0.0671867h 0.28422v 0.644992h 0.28422v -0.0940614h 0.28422v 0.913739h 0.28422v 0.0940614h 0.28422v 0.685304h 0.28422v 0.107499h
 0.28422v -0.228435h 0.28422v 1.3303h 0.28422v -0.631555h 0.28422v 0.873427h 0.28422v -0.309059h 0.28422v 0.483744h 0.28422v 0.792803h 0.28422v -0.080624h 0.28422v -0.161248h 0.28422v 0.618118h 0.28422v 0.107499h 0.28422v -0.335934h 0.28422v 1.2228h
 0.28422v -0.886864h 0.28422v 1.30342h 0.28422v -0.335934h 0.28422v 0.940614h 0.28422v -0.524056h 0.28422v 0.161248h 0.28422v 0.335934h 0.28422v -0.0134373h 0.28422v 0.685304h 0.28422v -0.0940614h 0.28422v 1.1153h 0.28422v -0.913739h 0.28422v
 0.443432h 0.28422v -0.0537494h 0.28422v 0.497182h 0.28422v -0.0671867h 0.28422v -0.080624h 0.28422v 0.134373h 0.28422v 0.913739h 0.28422v -0.40312h 0.28422v 0.631555h 0.28422v -0.134373h 0.28422v 0.470307h 0.28422v -0.295621h 0.28422v 0.188123h
 0.28422v -0.0134373h 0.28422v 0.322496h 0.28422v -0.349371h 0.28422v 0.537494h 0.28422v 0.268747h 0.28422v -0.0268747h 0.28422v 0.65843h 0.28422v -0.349371h 0.28422v 0.335934h 0.28422v 0.214997h 0.28422v -0.0134373h 0.28422v -0.255309h 0.28422v
 0.416558h 0.28422v 0.080624h 0.28422v 0.214997h 0.28422v 0.174685h 0.28422v 0.161248h 0.28422v -0.335934h 0.28422v 0.188123h 0.28422v -0.241872h 0.28422v 0.524056h 0.28422v 0.080624h 0.28422v 0.0940614h 0.28422v -0.0671867h 0.28422v 0.161248h
 0.28422v -0.120936h 0.28422v -0.040312h 0.28422v 0.255309h 0.28422v 0.0268747h 0.28422v 0.443432h 0.28422v -0.120936h 0.28422v -0.20156h 0.28422v 0.214997h 0.568441v -0.0671867h 0.28422v 0.389683h 0.28422v -0.040312h 0.28422v -0.080624h 0.28422v
 0.255309h 0.28422v -0.0537494h 0.28422v -0.0537494h 0.28422v 0.0134373h 0.28422v -0.0134373h 0.28422v 0.0671867h 0.28422v -0.040312h 0.28422v -0.0268747h 0.28422v 0.241872h 0.28422v 0.107499h 0.28422v -0.120936h 0.28422v 0.188123h 0.28422v
 -0.107499h 0.28422v 0.0537494h 0.28422v 0.134373h 0.28422v -0.0268747h 0.28422v -0.0268747h 0.28422v -0.080624h 0.28422v 0.107499h 0.28422v 0.0671867h 0.28422v 0.0940614h 0.28422v -0.0537494h 0.28422v 0.080624h 0.28422v 0.040312h 0.28422v 0.0268747h
 0.28422v 0.0537494h 0.28422v -0.040312h 0.28422v 0.040312h 0.28422v -0.174685h 0.28422v 0.268747h 0.28422v -0.0134373h 0.28422v 0.0268747h 0.28422v 0.0268747h 0.28422v -0.134373h 0.28422v 0.147811h 0.28422v 0.0940614h 0.28422v -0.080624h 0.28422v
 -0.040312h 0.28422" fill="none" stroke="#0000ff"/>
<rect x="508.469" y="37.9931" width="26.6457" height="21.9019" fill="white"/>
<text xml:space="preserve" x="515.029" y="44.5084" fill="black" font-size="3.60063" font-family="Helvetica">MC</text>
<path d="M509.468,43.4686h 4.66299" fill="none" stroke="#ff0000"/>
<text xml:space="preserve" x="515.029" y="55.5565" fill="black" font-size="3.60063" font-family="Helvetica">Generated</text>
<path d="M509.468,54.4195h 4.66299" fill="none" stroke="#0000ff"/></svg>
